<?xml version="1.0" encoding="iso-8859-1"?>
<!-- Generator: Adobe Illustrator 16.0.0, SVG Export Plug-In . SVG Version: 6.00 Build 0)  -->
<!DOCTYPE svg PUBLIC "-//W3C//DTD SVG 1.1//EN" "http://www.w3.org/Graphics/SVG/1.1/DTD/svg11.dtd">
<svg version="1.1" id="Capa_1" xmlns="http://www.w3.org/2000/svg" xmlns:xlink="http://www.w3.org/1999/xlink" x="0px" y="0px"
	 width="45.944px" height="45.944px" viewBox="0 0 45.944 45.944" style="enable-background:new 0 0 45.944 45.944;"
	 xml:space="preserve">
<g>
	<g>
		<g>
			<path d="M39.027,20.476c-1.298,0-2.349,3.361-2.349,4.658s1.051,2.347,2.349,2.347s2.349-1.05,2.349-2.347
				S40.325,20.476,39.027,20.476z"/>
			<path d="M43.596,31.363c-1.296,0-2.347,3.362-2.347,4.658c0,1.297,1.051,2.349,2.347,2.349s2.349-1.052,2.349-2.349
				C45.943,34.727,44.893,31.363,43.596,31.363z"/>
			<path d="M39.457,17.395l1.47-1.851c0.215-0.271,0.2-0.657-0.035-0.91l-4.294-4.641c-0.309-0.334-0.749-0.516-1.205-0.499
				c-0.454,0.018-0.88,0.232-1.164,0.59l-1.606,2.026c-0.283,0.356-0.396,0.819-0.312,1.267c0.087,0.447,0.364,0.835,0.76,1.061
				l5.49,3.129C38.861,17.737,39.242,17.666,39.457,17.395z"/>
			<path d="M28.917,27.529H1.997c-1.102,0-1.994,0.896-1.994,1.997c0,1.104,0.892,1.997,1.994,1.997h26.919
				c1.101,0,1.994-0.896,1.994-1.997C30.911,28.426,30.017,27.529,28.917,27.529z"/>
			<path d="M28.917,33.547H1.997c-1.102,0-1.994,0.896-1.994,1.996c0,1.102,0.892,1.997,1.994,1.997h26.919
				c1.101,0,1.994-0.896,1.994-1.997C30.91,34.442,30.017,33.547,28.917,33.547z"/>
			<path d="M28.917,39.511H1.997c-1.102,0-1.994,0.896-1.994,1.997c0,1.101,0.892,1.996,1.994,1.996h26.919
				c1.101,0,1.994-0.896,1.994-1.996C30.911,40.405,30.017,39.511,28.917,39.511z"/>
			<path d="M31.956,7.583c-0.257-0.246-6.427-6.016-17.182-5.03C5.497,3.405,0.11,7.233,0.001,13.06
				c-0.072,3.81,2.422,7.207,6.67,9.088c5.412,2.396,9.947,0.106,13.259-1.565c3.24-1.638,4.344-1.971,5.411-1.015
				c0.814,0.729,0.755,1.241,0.729,1.464c-0.144,1.258-1.637,2.877-3.362,4.209h5.048c1.028-0.953,2.122-2.413,2.275-3.755
				c0.146-1.275-0.09-3.155-2.033-4.895c-3.255-2.914-6.771-1.137-9.87,0.429c-3.029,1.529-6.16,3.111-9.847,1.48
				c-2.731-1.209-4.337-3.216-4.297-5.367c0.095-5.051,7.83-6.303,11.15-6.608c8.869-0.807,13.853,3.747,14.067,3.949
				c0.797,0.755,2.055,0.724,2.812-0.071C32.78,9.606,32.752,8.343,31.956,7.583z"/>
		</g>
	</g>
</g>
<g>
</g>
<g>
</g>
<g>
</g>
<g>
</g>
<g>
</g>
<g>
</g>
<g>
</g>
<g>
</g>
<g>
</g>
<g>
</g>
<g>
</g>
<g>
</g>
<g>
</g>
<g>
</g>
<g>
</g>
</svg>
