<?xml version="1.0" encoding="iso-8859-1"?>
<!-- Generator: Adobe Illustrator 19.0.0, SVG Export Plug-In . SVG Version: 6.00 Build 0)  -->
<svg version="1.1" id="Capa_1" xmlns="http://www.w3.org/2000/svg" xmlns:xlink="http://www.w3.org/1999/xlink" x="0px" y="0px"
	 viewBox="0 0 297 297" style="enable-background:new 0 0 297 297;" xml:space="preserve">
<g>
	<path d="M30,217.663C30,209.567,21.205,203,13.107,203H0v49h13.107C21.205,252,30,245.138,30,237.044V217.663z"/>
	<path d="M276,129h11.333c5.522,0,9.667-4.478,9.667-10V79c0-5.522-4.145-10-9.667-10h-0.432L276,75.673V129z"/>
	<path d="M287,45H48.433C42.933,45,38,49.192,38,54.692v0.5V101h160.498c5.5,0,13.806-2.563,18.458-5.498l71.586-45.32
		c2.015-1.271,3.023-2.412,3.076-3.299C291.62,45.731,290.054,45,287,45z"/>
	<path d="M131,153h120.098c5.5,0,9.902-4.134,9.902-9.634V85.145l-36.208,22.967c-7.025,4.432-17.988,7.889-26.294,7.889H38v27.366
		c0,5.5,4.933,9.634,10.433,9.634H82v12.468c0,0.835,0.334,1.729,0.47,2.579C83.654,175.439,89.997,183,97.258,183H100v15.052
		C100,209.949,90.049,220,77.876,220H45v15h32.876C98.53,235,115,218.425,115,198.052V183h1.639c7.261,0,13.171-7.561,14.363-14.953
		c0.137-0.85-0.001-1.744-0.001-2.579V153z"/>
</g>
<g>
</g>
<g>
</g>
<g>
</g>
<g>
</g>
<g>
</g>
<g>
</g>
<g>
</g>
<g>
</g>
<g>
</g>
<g>
</g>
<g>
</g>
<g>
</g>
<g>
</g>
<g>
</g>
<g>
</g>
</svg>
